# xmcd
#
# Track frame offsets:
#	150
#	2123
#	24856
#	45244
#	62442
#	84914
#	102957
#	124215
#	145292
#	164922
#	184270
#	198244
#	216317
#	237911
#	255605
#	273568
#	294709
#	304544
#
# Disc length: 4288 seconds
#
# Revision: 0
# Processed by: cddbd v1.5.2PL0 Copyright (c) Steve Scherf et al.
# Submitted via: EasyCDDAExtractor 15.3.0.1
#
DISCID=fe10be12
DTITLE=Laura Pausini - 20 - Grandes Exitos - CD 1
DYEAR=2013
DGENRE=Latin
TTITLE0=Laura 1976 - Ramaya
TTITLE1=La Soledad (With Ennio Morricone 2013)
TTITLE2=Se Fue (With Marc Anthony 2013)
TTITLE3=Gente (New Version 2013)
TTITLE4=Amores Extraños (New Version 2013)
TTITLE5=Inolvidable (New Version 2013)
TTITLE6=Las Cosas Que Vives Tudo O Que Eu Vivo (With Ivete Sangalo 2013)
TTITLE7=En Ausencia De Ti (New Version 2013)
TTITLE8=One More Time
TTITLE9=Entre Tu Y Mil Mares (New Version 2013)
TTITLE10=Every Day Is A Monday
TTITLE11=Volvere Junto A Ti (New Version 2013)
TTITLE12=Surrender (New Version 2013)
TTITLE13=Viveme (With Alejandro Sanz 2013)
TTITLE14=Como Si No Nos Hubieramos Amado
TTITLE15=Me Abandono A Ti
TTITLE16=Prendo Te (New Version 2013)
TTITLE17=You'll Never Find Another Love Like Mine (With Michael Buble) (Live 2
TTITLE17=005 At Wiltern Theater, Los Angeles, USA)
EXTD=
EXTT0=
EXTT1=
EXTT2=
EXTT3=
EXTT4=
EXTT5=
EXTT6=
EXTT7=
EXTT8=
EXTT9=
EXTT10=
EXTT11=
EXTT12=
EXTT13=
EXTT14=
EXTT15=
EXTT16=
EXTT17=
PLAYORDER=
